<svg id="New" xmlns="http://www.w3.org/2000/svg" viewBox="0 0 467.98 576"><defs><style>.cls-1{fill:#fe0a0a;}.cls-2{fill:#0075c7;}.cls-3{fill:#fff;}.cls-4{fill:#fe7107;}.cls-5{font-size:80.98px;font-family:Arial Black;letter-spacing:-2px;}</style></defs><title>IC3D-Logo-svg</title><polygon id="Red" class="cls-1" points="456.67 438 245.78 563.69 245.78 278.57 456.67 154.57 456.67 438"/><polygon id="Blue" class="cls-2" points="10.91 438 221.8 563.69 221.8 278.57 10.91 154.57 10.91 438"/><g id="IC"><path class="cls-3" d="M47.42,251.34L77.31,268.1V412.61L47.42,394.49V251.34Z"/><path class="cls-3" d="M162.59,403.57l28.05,28.73q-2.85,15.36-9,23.11t-15.07,8.09q-8.94.36-22.63-8a98.42,98.42,0,0,1-26.83-23.21q-10.3-13.15-17.72-35T92.05,348.6q0-36,13-48c8.75-8,21.2-7.56,37.45,1.54A83.55,83.55,0,0,1,173,330.55q11.2,17.71,16.69,44.51l-28.25-7.21a68.82,68.82,0,0,0-3.08-11.69,48.51,48.51,0,0,0-6.49-11.79,28.74,28.74,0,0,0-8.54-7.7q-10.64-6.07-16.26,3.13-4.25,6.75-4.24,26.42,0,24.37,5.07,36.42t14.33,17.6q9,5.37,13.65.77T162.59,403.57Z"/></g><g id="_3D" data-name="3D"><path class="cls-3" d="M292.18,357l-27.41,8.65q3.44-20.8,13.19-36.3T305.25,304q20-11.2,28.81-5.39t8.79,22a55.87,55.87,0,0,1-3.56,19.26,82.13,82.13,0,0,1-10.8,19.79q5.86-1.3,8.95-.29,5,1.59,7.78,7.32t2.76,15.9a90.59,90.59,0,0,1-4.58,27.25A87.15,87.15,0,0,1,330.14,436a80,80,0,0,1-23,20.32q-14,8.51-22.22,8.69a16.73,16.73,0,0,1-13.53-5.87q-5.33-6.06-8.21-18.39l29-22.69q1.69,11.48,5.25,14.18t9-.58q5.73-3.43,9.53-11.75a43.76,43.76,0,0,0,3.79-18.38q0-10.27-3.65-13.77t-9.95.17q-3.36,2-9.27,7.86l1.48-30.37a24.42,24.42,0,0,0,3.72-1.64q5.61-3.23,9.34-10.54a31.34,31.34,0,0,0,3.73-14.35q0-6.76-2.79-9.21t-7.69.32a21,21,0,0,0-8.22,9.08Q293.3,345.25,292.18,357Z"/><path class="cls-3" d="M353.79,279.38l45.11-25.27Q412,246.77,420,247.57a18.16,18.16,0,0,1,13.15,7.68q5.17,6.88,7.48,18.55A135.17,135.17,0,0,1,442.95,300q0,22.78-3.44,37.37a121.21,121.21,0,0,1-9.59,26.82q-6.17,12.23-13.28,19.36-9.76,9.81-17.74,14.65L353.79,425.5V279.38Zm30.5,15.69v79.08l7.39-4.4q9.41-5.6,13.35-11t6.18-14.44q2.23-9,2.23-26.21,0-22.79-5-28.35t-16.64,1.07Z"/></g><polygon id="Orange" class="cls-4" points="447.39 134.32 234.39 258.32 21.39 134.32 233.13 12.01 447.39 134.32"/><path id="Oval" class="cls-3" d="M330.18,131.39c0,31.19-43.18,56.48-96.46,56.48s-96.43-25.29-96.43-56.48,43.17-56.48,96.43-56.48S330.18,100.19,330.18,131.39Z"/><text class="cls-5" transform="translate(382.62 546.96)">®</text></svg>